<svg width="325" height="63" viewBox="0 0 325 63" fill="none" xmlns="http://www.w3.org/2000/svg">
<path d="M55.1288 43.6374V20.4989H60.1041V43.6374H55.1288ZM57.4174 34.4481V30.184H69.4246V34.4481H57.4174ZM57.4174 24.9613V20.4989H70.8177V24.9613H57.4174ZM79.2302 43.9679C77.7707 43.9679 76.4554 43.5713 75.2831 42.7779C74.1113 41.9846 73.1825 40.9048 72.4969 39.5385C71.8117 38.1723 71.4686 36.6077 71.4686 34.8447C71.4686 33.0818 71.8117 31.5283 72.4969 30.184C73.2048 28.8177 74.1553 27.7489 75.3494 26.9777C76.5435 26.1844 77.9034 25.7877 79.4292 25.7877C80.2916 25.7877 81.0767 25.9199 81.7842 26.1844C82.5139 26.4267 83.1441 26.7683 83.6748 27.2091C84.2278 27.6498 84.6922 28.1566 85.0679 28.7296C85.4442 29.3025 85.7095 29.9196 85.864 30.5807L84.8689 30.4154V26.1513H89.5457V43.6374H84.8026V39.4394L85.864 39.3402C85.6872 39.9573 85.3996 40.5412 85.0016 41.0921C84.6035 41.6431 84.106 42.1389 83.509 42.5796C82.9342 42.9983 82.2817 43.3399 81.552 43.6043C80.8223 43.8467 80.0485 43.9679 79.2302 43.9679ZM80.5238 39.9022C81.4084 39.9022 82.1822 39.6928 82.8456 39.2741C83.509 38.8554 84.0179 38.2715 84.3714 37.5222C84.7476 36.7509 84.9352 35.8584 84.9352 34.8447C84.9352 33.8531 84.7476 32.9827 84.3714 32.2334C84.0179 31.4841 83.509 30.9002 82.8456 30.4815C82.1822 30.0408 81.4084 29.8204 80.5238 29.8204C79.6614 29.8204 78.8985 30.0408 78.2351 30.4815C77.594 30.9002 77.0856 31.4841 76.7093 32.2334C76.3336 32.9827 76.1455 33.8531 76.1455 34.8447C76.1455 35.8584 76.3336 36.7509 76.7093 37.5222C77.0856 38.2715 77.594 38.8554 78.2351 39.2741C78.8985 39.6928 79.6614 39.9022 80.5238 39.9022ZM98.5138 43.9679C96.8771 43.9679 95.4177 43.7035 94.1355 43.1746C92.875 42.6237 91.8577 41.8744 91.0839 40.9269L94.0028 38.4147C94.6879 39.1419 95.4508 39.6708 96.2915 40.0013C97.1316 40.3098 97.9717 40.4641 98.8123 40.4641C99.144 40.4641 99.4425 40.431 99.7079 40.3649C99.995 40.2768 100.239 40.1666 100.438 40.0344C100.637 39.8801 100.78 39.7038 100.869 39.5055C100.979 39.2851 101.035 39.0537 101.035 38.8113C101.035 38.3265 100.836 37.9409 100.438 37.6544C100.216 37.5443 99.8737 37.412 99.4093 37.2578C98.945 37.0815 98.3479 36.8942 97.6182 36.6958C96.4905 36.4093 95.5286 36.0788 94.7325 35.7042C93.9582 35.3075 93.3394 34.8668 92.875 34.382C92.477 33.9192 92.1671 33.4234 91.9463 32.8945C91.7473 32.3436 91.6478 31.7376 91.6478 31.0765C91.6478 30.2832 91.8245 29.567 92.1785 28.9279C92.532 28.2668 93.0186 27.7049 93.6379 27.2421C94.279 26.7793 95.0087 26.4267 95.8271 26.1844C96.6449 25.9199 97.5073 25.7877 98.4143 25.7877C99.3207 25.7877 100.205 25.8979 101.068 26.1182C101.93 26.3386 102.726 26.6581 103.456 27.0768C104.207 27.4735 104.86 27.9473 105.413 28.4982L102.892 31.2748C102.494 30.9002 102.041 30.5586 101.532 30.2501C101.045 29.9416 100.537 29.6992 100.006 29.5229C99.4757 29.3466 98.9999 29.2585 98.5801 29.2585C98.2038 29.2585 97.8613 29.2915 97.5519 29.3576C97.2642 29.4237 97.0212 29.5229 96.8222 29.6551C96.6231 29.7873 96.4682 29.9636 96.3578 30.184C96.2692 30.3823 96.2251 30.6027 96.2251 30.8451C96.2251 31.0875 96.2801 31.3189 96.391 31.5393C96.5236 31.7596 96.7004 31.9469 96.9217 32.1012C97.1647 32.2334 97.5187 32.3877 97.9831 32.564C98.4692 32.7402 99.1217 32.9386 99.94 33.1589C101.001 33.4454 101.897 33.7649 102.627 34.1175C103.378 34.4701 103.975 34.8778 104.418 35.3406C104.794 35.7372 105.07 36.189 105.247 36.6958C105.424 37.2026 105.512 37.7646 105.512 38.3816C105.512 39.4614 105.202 40.431 104.584 41.2905C103.987 42.1278 103.157 42.7889 102.096 43.2738C101.035 43.7365 99.8405 43.9679 98.5138 43.9679ZM108.903 43.6374V21.7219H113.613V43.6374H108.903ZM105.62 30.3493V26.1513H117.196V30.3493H105.62ZM119.27 43.6374V20.4989H123.715L136.551 37.7866H135.623C135.534 37.1035 135.457 36.4424 135.39 35.8033C135.324 35.1422 135.258 34.4811 135.191 33.82C135.147 33.1369 135.103 32.4427 135.059 31.7376C135.037 31.0104 135.015 30.2501 134.992 29.4568C134.971 28.6414 134.959 27.76 134.959 26.8124V20.4989H139.835V43.6374H135.324L122.222 26.1844L123.483 26.2174C123.594 27.3633 123.682 28.3439 123.748 29.1593C123.837 29.9526 123.903 30.6468 123.947 31.2418C123.992 31.8367 124.025 32.3546 124.047 32.7953C124.091 33.2361 124.113 33.6548 124.113 34.0514C124.135 34.4481 124.146 34.8668 124.146 35.3075V43.6374H119.27ZM151.702 43.9679C149.911 43.9679 148.307 43.5823 146.892 42.811C145.499 42.0177 144.393 40.9379 143.575 39.5716C142.779 38.2053 142.381 36.6407 142.381 34.8778C142.381 33.1149 142.779 31.5613 143.575 30.2171C144.393 28.8508 145.499 27.771 146.892 26.9777C148.307 26.1844 149.911 25.7877 151.702 25.7877C153.471 25.7877 155.052 26.1844 156.445 26.9777C157.86 27.771 158.966 28.8508 159.762 30.2171C160.558 31.5613 160.956 33.1149 160.956 34.8778C160.956 36.6407 160.558 38.2053 159.762 39.5716C158.966 40.9379 157.86 42.0177 156.445 42.811C155.052 43.5823 153.471 43.9679 151.702 43.9679ZM151.702 39.8691C152.564 39.8691 153.338 39.6598 154.024 39.2411C154.709 38.8003 155.239 38.2054 155.616 37.4561C156.014 36.6848 156.213 35.8254 156.213 34.8778C156.213 33.9082 156.014 33.0488 155.616 32.2995C155.239 31.5283 154.709 30.9333 154.024 30.5145C153.338 30.0738 152.564 29.8534 151.702 29.8534C150.817 29.8534 150.032 30.0738 149.347 30.5145C148.661 30.9553 148.119 31.5503 147.721 32.2995C147.323 33.0488 147.135 33.9082 147.158 34.8778C147.135 35.8254 147.323 36.6848 147.721 37.4561C148.119 38.2054 148.661 38.8003 149.347 39.2411C150.032 39.6598 150.817 39.8691 151.702 39.8691ZM164.532 43.6374V21.7219H169.242V43.6374H164.532ZM161.249 30.3493V26.1513H172.825V30.3493H161.249ZM180.642 43.9679C179.182 43.9679 177.867 43.5713 176.695 42.7779C175.523 41.9846 174.594 40.9048 173.908 39.5385C173.223 38.1723 172.88 36.6077 172.88 34.8447C172.88 33.0818 173.223 31.5283 173.908 30.184C174.616 28.8177 175.567 27.7489 176.761 26.9777C177.955 26.1844 179.315 25.7877 180.841 25.7877C181.703 25.7877 182.488 25.9199 183.196 26.1844C183.925 26.4267 184.556 26.7683 185.086 27.2091C185.639 27.6498 186.104 28.1566 186.479 28.7296C186.856 29.3025 187.121 29.9196 187.275 30.5807L186.28 30.4154V26.1513H190.957V43.6374H186.214V39.4394L187.275 39.3402C187.099 39.9573 186.811 40.5412 186.413 41.0921C186.015 41.6431 185.517 42.1389 184.92 42.5796C184.346 42.9983 183.693 43.3399 182.963 43.6043C182.234 43.8467 181.46 43.9679 180.642 43.9679ZM181.935 39.9022C182.82 39.9022 183.594 39.6928 184.257 39.2741C184.92 38.8554 185.429 38.2715 185.783 37.5222C186.159 36.7509 186.347 35.8584 186.347 34.8447C186.347 33.8531 186.159 32.9827 185.783 32.2334C185.429 31.4841 184.92 30.9002 184.257 30.4815C183.594 30.0408 182.82 29.8204 181.935 29.8204C181.073 29.8204 180.31 30.0408 179.647 30.4815C179.005 30.9002 178.497 31.4841 178.121 32.2334C177.745 32.9827 177.557 33.8531 177.557 34.8447C177.557 35.8584 177.745 36.7509 178.121 37.5222C178.497 38.2715 179.005 38.8554 179.647 39.2741C180.31 39.6928 181.073 39.9022 181.935 39.9022ZM194.021 43.6374V26.1513H198.565L198.731 31.7706L197.935 30.6137C198.2 29.7102 198.632 28.8949 199.229 28.1676C199.826 27.4184 200.522 26.8344 201.318 26.4157C202.136 25.997 202.988 25.7877 203.872 25.7877C204.248 25.7877 204.613 25.8207 204.967 25.8869C205.32 25.953 205.619 26.0301 205.862 26.1182L204.602 31.2748C204.337 31.1426 204.016 31.0324 203.64 30.9443C203.264 30.8341 202.877 30.779 202.479 30.779C201.949 30.779 201.451 30.8782 200.987 31.0765C200.544 31.2528 200.157 31.5172 199.826 31.8698C199.494 32.2004 199.229 32.597 199.03 33.0598C198.852 33.5225 198.764 34.0294 198.764 34.5803V43.6374H194.021ZM209.361 51.24L213.208 42.2491L213.275 44.9596L204.717 26.1513H210.057L214.336 36.2331C214.513 36.6077 214.679 37.0484 214.834 37.5553C215.011 38.0401 215.154 38.5138 215.265 38.9766L214.469 39.3072C214.601 38.9326 214.756 38.5028 214.933 38.018C215.11 37.5332 215.287 37.0154 215.464 36.4644L219.146 26.1513H224.519L217.155 43.6374L214.137 51.24H209.361Z" fill="#0F172A"/>
<path d="M23.518 52.9565C35.3772 52.9565 44.991 43.3501 44.991 31.5C44.991 19.6499 35.3772 10.0435 23.518 10.0435C11.6588 10.0435 2.04504 19.6499 2.04504 31.5C2.04504 43.3501 11.6588 52.9565 23.518 52.9565Z" fill="#FBE36B"/>
<path d="M21.2939 43.2214C21.5999 43.5647 22.0347 43.7609 22.4937 43.7609C23.0252 43.7609 23.5325 43.4911 23.8304 43.0416L32.4384 30.1283C32.7766 29.6297 32.8169 28.9841 32.527 28.4038C32.2452 27.8317 31.6815 27.4802 31.0615 27.4802H25.5939L26.2219 21.2606C26.3105 20.4024 25.7871 19.5851 24.9819 19.3236C24.2169 19.0784 23.3795 19.3808 22.9366 20.051L14.5943 32.6047C14.2561 33.1114 14.2239 33.7734 14.5057 34.3211C14.7956 34.8687 15.3512 35.2037 15.9552 35.2037H21.5194L20.8832 41.9628C20.8349 42.4205 20.9879 42.8782 21.2939 43.2214Z" fill="white"/>
<path d="M245.136 36.12C245.317 36.1947 245.429 36.3493 245.472 36.584C245.515 36.8187 245.419 37.144 245.184 37.56C244.597 38.7973 243.835 39.8533 242.896 40.728C241.968 41.592 240.907 42.2533 239.712 42.712C238.517 43.16 237.216 43.384 235.808 43.384C234.016 43.384 232.464 42.968 231.152 42.136C229.851 41.2933 228.917 40.0613 228.352 38.44C227.797 36.8187 227.723 34.8347 228.128 32.488C228.427 30.76 228.965 29.1493 229.744 27.656C230.523 26.1627 231.483 24.856 232.624 23.736C233.776 22.616 235.056 21.7467 236.464 21.128C237.872 20.4987 239.355 20.184 240.912 20.184C241.584 20.184 242.155 20.2587 242.624 20.408C243.104 20.5467 243.504 20.712 243.824 20.904C244.144 21.0853 244.405 21.2507 244.608 21.4C244.821 21.5387 244.997 21.608 245.136 21.608C245.285 21.608 245.445 21.5387 245.616 21.4C245.787 21.2507 245.957 21.0907 246.128 20.92C246.309 20.7387 246.485 20.5787 246.656 20.44C246.837 20.2907 247.013 20.216 247.184 20.216C247.408 20.216 247.589 20.2853 247.728 20.424C247.867 20.5627 247.941 20.7547 247.952 21L247.968 26.792C247.968 27.048 247.888 27.24 247.728 27.368C247.579 27.496 247.387 27.5653 247.152 27.576C246.725 27.576 246.427 27.336 246.256 26.856L245.904 25.672C245.509 24.2853 244.955 23.2933 244.24 22.696C243.525 22.088 242.624 21.784 241.536 21.784C240.565 21.784 239.643 22.04 238.768 22.552C237.904 23.0533 237.115 23.7627 236.4 24.68C235.685 25.5867 235.072 26.6587 234.56 27.896C234.048 29.1333 233.664 30.4827 233.408 31.944C233.024 34.1093 232.971 35.864 233.248 37.208C233.536 38.5413 234.064 39.5173 234.832 40.136C235.6 40.744 236.523 41.048 237.6 41.048C238.368 41.048 239.115 40.904 239.84 40.616C240.576 40.3173 241.28 39.8533 241.952 39.224C242.624 38.584 243.248 37.7627 243.824 36.76C244.08 36.472 244.309 36.2747 244.512 36.168C244.725 36.0613 244.933 36.0453 245.136 36.12ZM256.093 27.912C257.554 27.9333 258.791 28.2587 259.805 28.888C260.829 29.5067 261.559 30.3813 261.997 31.512C262.434 32.6427 262.514 33.992 262.237 35.56C262.023 36.7333 261.645 37.8053 261.101 38.776C260.557 39.7467 259.874 40.5787 259.053 41.272C258.242 41.9653 257.319 42.4933 256.285 42.856C255.261 43.2187 254.157 43.3893 252.973 43.368C251.533 43.3467 250.306 43.0267 249.293 42.408C248.29 41.7893 247.57 40.9147 247.133 39.784C246.695 38.6427 246.615 37.2933 246.893 35.736C247.106 34.552 247.485 33.4747 248.029 32.504C248.573 31.5333 249.25 30.7013 250.061 30.008C250.871 29.3147 251.789 28.7867 252.813 28.424C253.837 28.0613 254.93 27.8907 256.093 27.912ZM252.925 41.816C253.319 41.8587 253.703 41.7947 254.077 41.624C254.45 41.4533 254.813 41.1867 255.165 40.824C255.517 40.4613 255.842 40.0133 256.141 39.48C256.45 38.936 256.727 38.3173 256.973 37.624C257.218 36.92 257.426 36.152 257.597 35.32C257.863 34.0613 257.975 33.0107 257.933 32.168C257.89 31.3253 257.714 30.68 257.405 30.232C257.106 29.784 256.69 29.528 256.157 29.464C255.762 29.4213 255.378 29.4853 255.005 29.656C254.642 29.8267 254.285 30.0933 253.933 30.456C253.591 30.8187 253.266 31.272 252.957 31.816C252.658 32.3493 252.386 32.968 252.141 33.672C251.895 34.376 251.687 35.144 251.517 35.976C251.25 37.2453 251.138 38.3013 251.181 39.144C251.223 39.976 251.394 40.616 251.693 41.064C252.002 41.5013 252.413 41.752 252.925 41.816ZM279.488 39.592C279.627 39.656 279.696 39.784 279.696 39.976C279.696 40.1573 279.621 40.392 279.472 40.68C279.024 41.4907 278.379 42.1413 277.536 42.632C276.693 43.1227 275.749 43.368 274.704 43.368C274.032 43.368 273.509 43.224 273.136 42.936C272.763 42.648 272.576 42.2267 272.576 41.672C272.576 41.3413 272.645 40.9627 272.784 40.536C272.923 40.0987 273.104 39.608 273.328 39.064C273.563 38.52 273.813 37.9173 274.08 37.256C274.357 36.5947 274.619 35.8587 274.864 35.048L275.072 35.496C274.485 36.9787 273.819 38.2267 273.072 39.24C272.325 40.2427 271.552 41.048 270.752 41.656C269.952 42.264 269.163 42.7013 268.384 42.968C267.605 43.2347 266.891 43.368 266.24 43.368C265.333 43.368 264.672 43.1707 264.256 42.776C263.851 42.3813 263.648 41.8267 263.648 41.112C263.659 40.3973 263.829 39.56 264.16 38.6L266.144 32.872C266.432 32.0507 266.533 31.4853 266.448 31.176C266.373 30.856 266.203 30.696 265.936 30.696C265.787 30.696 265.616 30.7493 265.424 30.856C265.243 30.952 265.019 31.1333 264.752 31.4C264.56 31.56 264.405 31.6613 264.288 31.704C264.171 31.736 264.053 31.7307 263.936 31.688C263.797 31.6133 263.723 31.4853 263.712 31.304C263.712 31.112 263.787 30.872 263.936 30.584C264.363 29.784 264.987 29.144 265.808 28.664C266.629 28.184 267.573 27.944 268.64 27.944C269.419 27.944 269.995 28.1093 270.368 28.44C270.752 28.76 270.955 29.224 270.976 29.832C271.008 30.4293 270.869 31.16 270.56 32.024L268.56 37.832C268.219 38.792 268.096 39.4693 268.192 39.864C268.299 40.2587 268.613 40.456 269.136 40.456C269.509 40.456 269.931 40.3333 270.4 40.088C270.88 39.832 271.371 39.4533 271.872 38.952C272.373 38.44 272.853 37.8107 273.312 37.064C273.781 36.3067 274.197 35.4267 274.56 34.424C274.784 33.816 274.96 33.3093 275.088 32.904C275.216 32.488 275.307 32.1467 275.36 31.88C275.424 31.6133 275.456 31.3893 275.456 31.208C275.456 30.9093 275.408 30.6533 275.312 30.44C275.216 30.2267 275.168 29.9707 275.168 29.672C275.168 29.1493 275.477 28.7333 276.096 28.424C276.725 28.104 277.584 27.944 278.672 27.944C279.493 27.944 279.989 28.216 280.16 28.76C280.331 29.2933 280.224 30.0987 279.84 31.176L277.264 38.408C276.976 39.2187 276.869 39.784 276.944 40.104C277.019 40.424 277.189 40.584 277.456 40.584C277.616 40.584 277.787 40.5307 277.968 40.424C278.16 40.3173 278.395 40.1307 278.672 39.864C278.853 39.704 279.003 39.608 279.12 39.576C279.248 39.5333 279.371 39.5387 279.488 39.592ZM282.322 31.72C282.183 31.656 282.109 31.5333 282.098 31.352C282.098 31.16 282.173 30.92 282.322 30.632C282.621 30.088 283.01 29.6187 283.49 29.224C283.97 28.8187 284.509 28.504 285.106 28.28C285.714 28.056 286.354 27.944 287.026 27.944C287.655 27.944 288.13 28.088 288.45 28.376C288.781 28.664 288.946 29.0853 288.946 29.64C288.946 30.0667 288.861 30.552 288.69 31.096C288.519 31.64 288.317 32.2053 288.082 32.792C287.858 33.3787 287.645 33.96 287.442 34.536C287.25 35.1013 287.127 35.6293 287.074 36.12L286.818 36.056C287.181 34.7333 287.623 33.5653 288.146 32.552C288.679 31.5387 289.255 30.6907 289.874 30.008C290.503 29.3253 291.143 28.8133 291.794 28.472C292.455 28.12 293.101 27.944 293.73 27.944C294.594 27.944 295.245 28.2 295.682 28.712C296.119 29.224 296.322 29.9013 296.29 30.744C296.269 31.4053 296.125 31.976 295.858 32.456C295.602 32.936 295.277 33.304 294.882 33.56C294.487 33.8053 294.055 33.928 293.586 33.928C293.074 33.928 292.701 33.816 292.466 33.592C292.231 33.3573 292.114 33.0853 292.114 32.776C292.114 32.5307 292.151 32.2907 292.226 32.056C292.301 31.8213 292.338 31.5813 292.338 31.336C292.338 31.0907 292.279 30.8987 292.162 30.76C292.045 30.6213 291.874 30.552 291.65 30.552C291.255 30.552 290.813 30.7813 290.322 31.24C289.842 31.6987 289.341 32.4027 288.818 33.352C288.306 34.2907 287.815 35.4907 287.346 36.952C287.101 37.6987 286.919 38.3013 286.802 38.76C286.685 39.2187 286.626 39.6293 286.626 39.992C286.626 40.2907 286.69 40.52 286.818 40.68C286.946 40.8293 287.074 40.9733 287.202 41.112C287.33 41.2507 287.394 41.4533 287.394 41.72C287.394 42.0187 287.239 42.296 286.93 42.552C286.631 42.808 286.189 43.0107 285.602 43.16C285.026 43.3093 284.317 43.384 283.474 43.384C282.877 43.384 282.439 43.256 282.162 43C281.885 42.7547 281.746 42.392 281.746 41.912C281.757 41.4213 281.885 40.824 282.13 40.12L284.562 32.904C284.839 32.0933 284.935 31.528 284.85 31.208C284.775 30.888 284.605 30.728 284.338 30.728C284.189 30.728 284.018 30.7813 283.826 30.888C283.645 30.984 283.41 31.1707 283.122 31.448C282.941 31.5973 282.786 31.6933 282.658 31.736C282.541 31.7787 282.429 31.7733 282.322 31.72ZM300.855 42.008C301.474 42.008 301.975 41.8427 302.359 41.512C302.743 41.1707 302.935 40.7387 302.935 40.216C302.935 39.8853 302.86 39.576 302.711 39.288C302.572 39 302.316 38.6853 301.943 38.344C301.57 38.0027 301.02 37.592 300.295 37.112C299.495 36.568 298.855 36.0773 298.375 35.64C297.906 35.192 297.564 34.7333 297.351 34.264C297.148 33.7947 297.047 33.2667 297.047 32.68C297.058 31.8267 297.33 31.0427 297.863 30.328C298.407 29.6027 299.186 29.0213 300.199 28.584C301.212 28.1467 302.434 27.928 303.863 27.928C304.994 27.928 305.932 28.072 306.679 28.36C307.436 28.648 308.002 29.0373 308.375 29.528C308.759 30.0187 308.951 30.5627 308.951 31.16C308.962 31.6933 308.85 32.104 308.615 32.392C308.391 32.68 308.076 32.824 307.671 32.824C307.287 32.824 306.951 32.7013 306.663 32.456C306.386 32.2 306.103 31.752 305.815 31.112C305.516 30.4827 305.17 30.008 304.775 29.688C304.38 29.368 303.906 29.208 303.351 29.208C302.69 29.208 302.162 29.3893 301.767 29.752C301.372 30.104 301.175 30.5733 301.175 31.16C301.164 31.48 301.228 31.8 301.367 32.12C301.516 32.4293 301.783 32.776 302.167 33.16C302.551 33.5333 303.111 33.9867 303.847 34.52C304.711 35.1173 305.378 35.6507 305.847 36.12C306.327 36.5787 306.658 37.032 306.839 37.48C307.02 37.928 307.106 38.4293 307.095 38.984C307.084 39.8267 306.802 40.5787 306.247 41.24C305.703 41.9013 304.935 42.424 303.943 42.808C302.951 43.1813 301.783 43.368 300.439 43.368C299.202 43.368 298.172 43.2027 297.351 42.872C296.54 42.5413 295.938 42.1093 295.543 41.576C295.148 41.0427 294.951 40.472 294.951 39.864C294.962 39.3733 295.079 38.984 295.303 38.696C295.527 38.408 295.831 38.264 296.215 38.264C296.663 38.264 297.036 38.408 297.335 38.696C297.644 38.984 297.932 39.432 298.199 40.04C298.572 40.7653 298.972 41.2773 299.399 41.576C299.836 41.864 300.322 42.008 300.855 42.008ZM311.148 36.344C311.148 36.344 311.34 36.28 311.724 36.152C312.108 36.0133 312.604 35.8427 313.212 35.64C313.831 35.4267 314.492 35.1973 315.196 34.952C315.911 34.7067 316.604 34.472 317.276 34.248C317.948 34.0133 318.53 33.8107 319.02 33.64L318.556 34.184C318.663 33.864 318.743 33.496 318.796 33.08C318.86 32.6533 318.898 32.1627 318.908 31.608C318.908 30.936 318.78 30.3973 318.524 29.992C318.268 29.576 317.916 29.368 317.468 29.368C317.042 29.368 316.604 29.5333 316.156 29.864C315.708 30.1947 315.287 30.664 314.892 31.272C314.508 31.8693 314.178 32.5787 313.9 33.4C313.623 34.2213 313.442 35.1227 313.356 36.104C313.228 37.6613 313.442 38.84 313.996 39.64C314.562 40.44 315.399 40.84 316.508 40.84C317.127 40.84 317.714 40.7227 318.268 40.488C318.834 40.2533 319.346 39.9227 319.804 39.496C320.274 39.0587 320.663 38.5307 320.972 37.912C321.175 37.6453 321.346 37.4693 321.484 37.384C321.623 37.288 321.778 37.2453 321.948 37.256C322.14 37.256 322.295 37.3467 322.412 37.528C322.53 37.6987 322.54 37.9707 322.444 38.344C322.231 39.2187 321.794 40.04 321.132 40.808C320.471 41.576 319.591 42.1947 318.492 42.664C317.404 43.1333 316.108 43.368 314.604 43.368C313.228 43.368 312.098 43.1227 311.212 42.632C310.338 42.1413 309.708 41.4373 309.324 40.52C308.951 39.6027 308.818 38.504 308.924 37.224C309.031 35.9547 309.346 34.76 309.868 33.64C310.391 32.5093 311.074 31.5173 311.916 30.664C312.759 29.8107 313.719 29.144 314.796 28.664C315.884 28.1733 317.036 27.928 318.252 27.928C319.202 27.928 319.986 28.104 320.604 28.456C321.234 28.7973 321.708 29.2613 322.028 29.848C322.359 30.4347 322.551 31.0907 322.604 31.816C322.626 32.008 322.674 32.168 322.748 32.296C322.834 32.424 322.946 32.4987 323.084 32.52C323.234 32.5307 323.346 32.5733 323.42 32.648C323.495 32.7227 323.532 32.8293 323.532 32.968C323.532 33.1387 323.458 33.304 323.308 33.464C323.159 33.624 322.882 33.768 322.476 33.896C322.05 34.0347 321.479 34.216 320.764 34.44C320.06 34.664 319.287 34.9147 318.444 35.192C317.612 35.4693 316.775 35.7467 315.932 36.024C315.09 36.3013 314.316 36.552 313.612 36.776C312.908 37 312.343 37.1813 311.916 37.32C311.49 37.4587 311.276 37.528 311.276 37.528L311.148 36.344Z" fill="#7C7671"/>
</svg>
