<svg width="289" height="115" viewBox="0 0 289 115" fill="none" xmlns="http://www.w3.org/2000/svg">
<g filter="url(#filter0_bd_25_126)">
<rect x="22" y="18" width="245" height="71" rx="8" fill="white" fill-opacity="0.92" shape-rendering="crispEdges"/>
</g>
<path d="M96.7195 42.2536H94.8601C94.8071 41.9486 94.7093 41.6785 94.5668 41.4432C94.4242 41.2045 94.2469 41.0024 94.0348 40.8366C93.8227 40.6709 93.5807 40.5466 93.3089 40.4638C93.0405 40.3776 92.7505 40.3345 92.4389 40.3345C91.8854 40.3345 91.3949 40.4737 90.9673 40.7521C90.5398 41.0272 90.205 41.4316 89.9631 41.9652C89.7211 42.4955 89.6001 43.1435 89.6001 43.9091C89.6001 44.688 89.7211 45.3442 89.9631 45.8778C90.2083 46.4081 90.5431 46.8092 90.9673 47.081C91.3949 47.3494 91.8838 47.4837 92.4339 47.4837C92.7389 47.4837 93.0239 47.4439 93.2891 47.3643C93.5575 47.2815 93.7978 47.1605 94.0099 47.0014C94.2254 46.8423 94.406 46.6468 94.5518 46.4148C94.701 46.1828 94.8037 45.9176 94.8601 45.6193L96.7195 45.6293C96.6499 46.1132 96.4991 46.5672 96.267 46.9915C96.0384 47.4157 95.7384 47.7902 95.3672 48.1151C94.996 48.4366 94.5618 48.6884 94.0646 48.8707C93.5675 49.0497 93.0156 49.1392 92.4091 49.1392C91.5142 49.1392 90.7154 48.9321 90.0128 48.5178C89.3101 48.1035 88.7566 47.5052 88.3523 46.723C87.9479 45.9408 87.7457 45.0028 87.7457 43.9091C87.7457 42.812 87.9496 41.8741 88.3572 41.0952C88.7649 40.313 89.3201 39.7147 90.0227 39.3004C90.7254 38.8861 91.5208 38.679 92.4091 38.679C92.9759 38.679 93.5028 38.7585 93.9901 38.9176C94.4773 39.0767 94.9115 39.3104 95.2926 39.6186C95.6738 39.9235 95.987 40.2981 96.2322 40.7422C96.4808 41.183 96.6432 41.6868 96.7195 42.2536ZM101.38 49.1491C100.634 49.1491 99.9879 48.9851 99.4411 48.657C98.8942 48.3288 98.4699 47.8698 98.1683 47.2798C97.87 46.6899 97.7209 46.0005 97.7209 45.2116C97.7209 44.4228 97.87 43.7318 98.1683 43.1385C98.4699 42.5452 98.8942 42.0845 99.4411 41.7564C99.9879 41.4283 100.634 41.2642 101.38 41.2642C102.126 41.2642 102.772 41.4283 103.319 41.7564C103.866 42.0845 104.288 42.5452 104.587 43.1385C104.888 43.7318 105.039 44.4228 105.039 45.2116C105.039 46.0005 104.888 46.6899 104.587 47.2798C104.288 47.8698 103.866 48.3288 103.319 48.657C102.772 48.9851 102.126 49.1491 101.38 49.1491ZM101.39 47.7074C101.794 47.7074 102.132 47.5964 102.404 47.3743C102.676 47.1489 102.878 46.8473 103.011 46.4695C103.147 46.0916 103.214 45.6707 103.214 45.2067C103.214 44.7393 103.147 44.3168 103.011 43.9389C102.878 43.5578 102.676 43.2545 102.404 43.0291C102.132 42.8037 101.794 42.6911 101.39 42.6911C100.976 42.6911 100.631 42.8037 100.356 43.0291C100.084 43.2545 99.8802 43.5578 99.7443 43.9389C99.6117 44.3168 99.5455 44.7393 99.5455 45.2067C99.5455 45.6707 99.6117 46.0916 99.7443 46.4695C99.8802 46.8473 100.084 47.1489 100.356 47.3743C100.631 47.5964 100.976 47.7074 101.39 47.7074ZM108.086 44.5256V49H106.287V41.3636H108.007V42.6612H108.096C108.272 42.2337 108.552 41.8939 108.936 41.642C109.324 41.3902 109.803 41.2642 110.373 41.2642C110.9 41.2642 111.359 41.3769 111.75 41.6023C112.145 41.8277 112.45 42.1541 112.665 42.5817C112.884 43.0092 112.992 43.5279 112.988 44.1378V49H111.189V44.4162C111.189 43.9058 111.056 43.5064 110.791 43.218C110.529 42.9297 110.166 42.7855 109.702 42.7855C109.387 42.7855 109.107 42.8551 108.862 42.9943C108.62 43.1302 108.429 43.3274 108.29 43.5859C108.154 43.8445 108.086 44.1577 108.086 44.5256ZM117.859 52.0227C117.213 52.0227 116.657 51.9349 116.193 51.7592C115.729 51.5869 115.356 51.3549 115.075 51.0632C114.793 50.7715 114.597 50.4484 114.488 50.0938L116.109 49.701C116.182 49.8501 116.288 49.9976 116.427 50.1435C116.566 50.2926 116.754 50.4152 116.989 50.5114C117.227 50.6108 117.527 50.6605 117.889 50.6605C118.399 50.6605 118.822 50.5362 119.156 50.2876C119.491 50.0424 119.659 49.638 119.659 49.0746V47.6278H119.569C119.476 47.8134 119.34 48.004 119.161 48.1996C118.986 48.3951 118.752 48.5592 118.46 48.6918C118.172 48.8243 117.809 48.8906 117.372 48.8906C116.785 48.8906 116.253 48.7531 115.776 48.478C115.302 48.1996 114.924 47.7853 114.642 47.2351C114.364 46.6816 114.225 45.9889 114.225 45.157C114.225 44.3184 114.364 43.6108 114.642 43.0341C114.924 42.4541 115.303 42.0149 115.781 41.7166C116.258 41.415 116.79 41.2642 117.377 41.2642C117.824 41.2642 118.192 41.3404 118.48 41.4929C118.772 41.642 119.004 41.8227 119.176 42.0348C119.349 42.2436 119.48 42.4408 119.569 42.6264H119.669V41.3636H121.443V49.1243C121.443 49.7772 121.288 50.3175 120.976 50.745C120.664 51.1726 120.239 51.4924 119.698 51.7045C119.158 51.9167 118.545 52.0227 117.859 52.0227ZM117.874 47.4787C118.255 47.4787 118.58 47.3859 118.848 47.2003C119.117 47.0147 119.321 46.7479 119.46 46.3999C119.599 46.0518 119.669 45.6342 119.669 45.147C119.669 44.6664 119.599 44.2455 119.46 43.8842C119.324 43.523 119.122 43.2429 118.853 43.044C118.588 42.8419 118.262 42.7408 117.874 42.7408C117.473 42.7408 117.138 42.8452 116.87 43.054C116.601 43.2628 116.399 43.5495 116.263 43.9141C116.127 44.2753 116.059 44.6863 116.059 45.147C116.059 45.6143 116.127 46.0237 116.263 46.375C116.402 46.723 116.606 46.9948 116.874 47.1903C117.146 47.3826 117.479 47.4787 117.874 47.4787ZM123.008 49V41.3636H124.753V42.6364H124.832C124.972 42.1955 125.21 41.8558 125.548 41.6172C125.89 41.3752 126.279 41.2543 126.717 41.2543C126.816 41.2543 126.927 41.2592 127.05 41.2692C127.176 41.2758 127.28 41.2874 127.363 41.304V42.9595C127.287 42.933 127.166 42.9098 127 42.8899C126.838 42.8667 126.68 42.8551 126.528 42.8551C126.2 42.8551 125.905 42.9264 125.643 43.0689C125.384 43.2081 125.18 43.402 125.031 43.6506C124.882 43.8991 124.808 44.1858 124.808 44.5107V49H123.008ZM130.339 49.1541C129.855 49.1541 129.42 49.0679 129.032 48.8956C128.647 48.7199 128.342 48.4614 128.117 48.12C127.895 47.7786 127.784 47.3577 127.784 46.8572C127.784 46.4264 127.863 46.0701 128.023 45.7884C128.182 45.5066 128.399 45.2812 128.674 45.1122C128.949 44.9432 129.259 44.8156 129.604 44.7294C129.952 44.6399 130.311 44.5753 130.682 44.5355C131.13 44.4891 131.493 44.4477 131.771 44.4112C132.05 44.3714 132.252 44.3118 132.378 44.2322C132.507 44.1494 132.572 44.0218 132.572 43.8494V43.8196C132.572 43.4451 132.461 43.1551 132.238 42.9496C132.016 42.7441 131.697 42.6413 131.279 42.6413C130.838 42.6413 130.488 42.7375 130.23 42.9297C129.975 43.1219 129.802 43.349 129.713 43.6108L128.033 43.3722C128.165 42.9081 128.384 42.5204 128.689 42.2088C128.994 41.8939 129.367 41.6586 129.807 41.5028C130.248 41.3438 130.735 41.2642 131.269 41.2642C131.637 41.2642 132.003 41.3073 132.368 41.3935C132.732 41.4796 133.065 41.6222 133.367 41.821C133.669 42.0166 133.911 42.2834 134.093 42.6214C134.279 42.9595 134.371 43.3821 134.371 43.8892V49H132.641V47.951H132.582C132.472 48.1631 132.318 48.362 132.119 48.5476C131.924 48.7299 131.677 48.8774 131.378 48.9901C131.083 49.0994 130.737 49.1541 130.339 49.1541ZM130.807 47.8317C131.168 47.8317 131.481 47.7604 131.746 47.6179C132.011 47.4721 132.215 47.2798 132.358 47.0412C132.504 46.8026 132.577 46.5424 132.577 46.2607V45.3608C132.52 45.4072 132.424 45.4503 132.288 45.4901C132.156 45.5298 132.006 45.5646 131.841 45.5945C131.675 45.6243 131.511 45.6508 131.349 45.674C131.186 45.6972 131.045 45.7171 130.926 45.7337C130.658 45.7701 130.417 45.8298 130.205 45.9126C129.993 45.9955 129.826 46.1115 129.703 46.2607C129.58 46.4065 129.519 46.5954 129.519 46.8274C129.519 47.1589 129.64 47.4091 129.882 47.5781C130.124 47.7472 130.432 47.8317 130.807 47.8317ZM139.714 41.3636V42.7557H135.324V41.3636H139.714ZM136.408 39.5341H138.208V46.7031C138.208 46.9451 138.244 47.1307 138.317 47.2599C138.393 47.3859 138.493 47.4721 138.615 47.5185C138.738 47.5649 138.874 47.5881 139.023 47.5881C139.136 47.5881 139.239 47.5798 139.331 47.5632C139.427 47.5466 139.5 47.5317 139.55 47.5185L139.853 48.9254C139.757 48.9586 139.62 48.995 139.441 49.0348C139.265 49.0746 139.05 49.0978 138.794 49.1044C138.344 49.1177 137.938 49.0497 137.576 48.9006C137.215 48.7481 136.928 48.5128 136.716 48.1946C136.507 47.8764 136.405 47.4787 136.408 47.0014V39.5341ZM145.807 45.7884V41.3636H147.606V49H145.861V47.6428H145.782C145.609 48.0703 145.326 48.42 144.932 48.6918C144.54 48.9635 144.058 49.0994 143.485 49.0994C142.984 49.0994 142.542 48.9884 142.157 48.7663C141.776 48.541 141.478 48.2145 141.262 47.7869C141.047 47.3561 140.939 46.8357 140.939 46.2259V41.3636H142.739V45.9474C142.739 46.4313 142.872 46.8158 143.137 47.1009C143.402 47.3859 143.75 47.5284 144.181 47.5284C144.446 47.5284 144.703 47.4638 144.951 47.3345C145.2 47.2053 145.404 47.013 145.563 46.7578C145.725 46.4993 145.807 46.1761 145.807 45.7884ZM150.977 38.8182V49H149.177V38.8182H150.977ZM154.745 49.1541C154.261 49.1541 153.825 49.0679 153.437 48.8956C153.053 48.7199 152.748 48.4614 152.522 48.12C152.3 47.7786 152.189 47.3577 152.189 46.8572C152.189 46.4264 152.269 46.0701 152.428 45.7884C152.587 45.5066 152.804 45.2812 153.079 45.1122C153.354 44.9432 153.664 44.8156 154.009 44.7294C154.357 44.6399 154.717 44.5753 155.088 44.5355C155.535 44.4891 155.898 44.4477 156.177 44.4112C156.455 44.3714 156.657 44.3118 156.783 44.2322C156.912 44.1494 156.977 44.0218 156.977 43.8494V43.8196C156.977 43.4451 156.866 43.1551 156.644 42.9496C156.422 42.7441 156.102 42.6413 155.684 42.6413C155.244 42.6413 154.894 42.7375 154.635 42.9297C154.38 43.1219 154.208 43.349 154.118 43.6108L152.438 43.3722C152.57 42.9081 152.789 42.5204 153.094 42.2088C153.399 41.8939 153.772 41.6586 154.213 41.5028C154.654 41.3438 155.141 41.2642 155.674 41.2642C156.042 41.2642 156.409 41.3073 156.773 41.3935C157.138 41.4796 157.471 41.6222 157.772 41.821C158.074 42.0166 158.316 42.2834 158.498 42.6214C158.684 42.9595 158.777 43.3821 158.777 43.8892V49H157.047V47.951H156.987C156.878 48.1631 156.723 48.362 156.525 48.5476C156.329 48.7299 156.082 48.8774 155.784 48.9901C155.489 49.0994 155.142 49.1541 154.745 49.1541ZM155.212 47.8317C155.573 47.8317 155.887 47.7604 156.152 47.6179C156.417 47.4721 156.621 47.2798 156.763 47.0412C156.909 46.8026 156.982 46.5424 156.982 46.2607V45.3608C156.926 45.4072 156.829 45.4503 156.694 45.4901C156.561 45.5298 156.412 45.5646 156.246 45.5945C156.08 45.6243 155.916 45.6508 155.754 45.674C155.592 45.6972 155.451 45.7171 155.331 45.7337C155.063 45.7701 154.823 45.8298 154.611 45.9126C154.398 45.9955 154.231 46.1115 154.108 46.2607C153.986 46.4065 153.924 46.5954 153.924 46.8274C153.924 47.1589 154.045 47.4091 154.287 47.5781C154.529 47.7472 154.838 47.8317 155.212 47.8317ZM164.12 41.3636V42.7557H159.73V41.3636H164.12ZM160.813 39.5341H162.613V46.7031C162.613 46.9451 162.65 47.1307 162.723 47.2599C162.799 47.3859 162.898 47.4721 163.021 47.5185C163.143 47.5649 163.279 47.5881 163.429 47.5881C163.541 47.5881 163.644 47.5798 163.737 47.5632C163.833 47.5466 163.906 47.5317 163.956 47.5185L164.259 48.9254C164.163 48.9586 164.025 48.995 163.846 49.0348C163.67 49.0746 163.455 49.0978 163.2 49.1044C162.749 49.1177 162.343 49.0497 161.982 48.9006C161.621 48.7481 161.334 48.5128 161.122 48.1946C160.913 47.8764 160.81 47.4787 160.813 47.0014V39.5341ZM165.345 49V41.3636H167.144V49H165.345ZM166.25 40.2798C165.965 40.2798 165.719 40.1854 165.514 39.9964C165.308 39.8042 165.206 39.5739 165.206 39.3054C165.206 39.0336 165.308 38.8033 165.514 38.6143C165.719 38.4221 165.965 38.326 166.25 38.326C166.538 38.326 166.783 38.4221 166.985 38.6143C167.191 38.8033 167.294 39.0336 167.294 39.3054C167.294 39.5739 167.191 39.8042 166.985 39.9964C166.783 40.1854 166.538 40.2798 166.25 40.2798ZM172.046 49.1491C171.3 49.1491 170.654 48.9851 170.107 48.657C169.56 48.3288 169.136 47.8698 168.834 47.2798C168.536 46.6899 168.387 46.0005 168.387 45.2116C168.387 44.4228 168.536 43.7318 168.834 43.1385C169.136 42.5452 169.56 42.0845 170.107 41.7564C170.654 41.4283 171.3 41.2642 172.046 41.2642C172.792 41.2642 173.438 41.4283 173.985 41.7564C174.532 42.0845 174.954 42.5452 175.253 43.1385C175.554 43.7318 175.705 44.4228 175.705 45.2116C175.705 46.0005 175.554 46.6899 175.253 47.2798C174.954 47.8698 174.532 48.3288 173.985 48.657C173.438 48.9851 172.792 49.1491 172.046 49.1491ZM172.056 47.7074C172.46 47.7074 172.798 47.5964 173.07 47.3743C173.342 47.1489 173.544 46.8473 173.677 46.4695C173.813 46.0916 173.881 45.6707 173.881 45.2067C173.881 44.7393 173.813 44.3168 173.677 43.9389C173.544 43.5578 173.342 43.2545 173.07 43.0291C172.798 42.8037 172.46 42.6911 172.056 42.6911C171.642 42.6911 171.297 42.8037 171.022 43.0291C170.75 43.2545 170.546 43.5578 170.41 43.9389C170.278 44.3168 170.212 44.7393 170.212 45.2067C170.212 45.6707 170.278 46.0916 170.41 46.4695C170.546 46.8473 170.75 47.1489 171.022 47.3743C171.297 47.5964 171.642 47.7074 172.056 47.7074ZM178.752 44.5256V49H176.953V41.3636H178.673V42.6612H178.762C178.938 42.2337 179.218 41.8939 179.603 41.642C179.99 41.3902 180.469 41.2642 181.039 41.2642C181.566 41.2642 182.025 41.3769 182.416 41.6023C182.811 41.8277 183.116 42.1541 183.331 42.5817C183.55 43.0092 183.658 43.5279 183.654 44.1378V49H181.855V44.4162C181.855 43.9058 181.722 43.5064 181.457 43.218C181.195 42.9297 180.832 42.7855 180.368 42.7855C180.053 42.7855 179.773 42.8551 179.528 42.9943C179.286 43.1302 179.095 43.3274 178.956 43.5859C178.82 43.8445 178.752 44.1577 178.752 44.5256ZM191.239 43.3821L189.599 43.5611C189.552 43.3954 189.471 43.2396 189.355 43.0938C189.243 42.9479 189.09 42.8303 188.898 42.7408C188.706 42.6513 188.47 42.6065 188.192 42.6065C187.817 42.6065 187.502 42.6877 187.247 42.8501C186.995 43.0125 186.871 43.223 186.874 43.4815C186.871 43.7036 186.952 43.8842 187.118 44.0234C187.287 44.1626 187.565 44.277 187.953 44.3665L189.256 44.6449C189.978 44.8007 190.515 45.0476 190.867 45.3857C191.221 45.7237 191.4 46.1662 191.404 46.7131C191.4 47.1937 191.259 47.6179 190.981 47.9858C190.706 48.3504 190.323 48.6354 189.832 48.8409C189.342 49.0464 188.779 49.1491 188.142 49.1491C187.207 49.1491 186.455 48.9536 185.885 48.5625C185.315 48.1681 184.975 47.6196 184.866 46.9169L186.621 46.7479C186.7 47.0926 186.869 47.3527 187.128 47.5284C187.386 47.7041 187.723 47.7919 188.137 47.7919C188.565 47.7919 188.908 47.7041 189.166 47.5284C189.428 47.3527 189.559 47.1357 189.559 46.8771C189.559 46.6584 189.475 46.4777 189.305 46.3352C189.14 46.1927 188.881 46.0833 188.53 46.0071L187.227 45.7337C186.495 45.5812 185.953 45.3243 185.602 44.9631C185.25 44.5985 185.076 44.1378 185.08 43.581C185.076 43.1103 185.204 42.7027 185.462 42.358C185.724 42.0099 186.087 41.7415 186.551 41.5526C187.019 41.3603 187.557 41.2642 188.167 41.2642C189.062 41.2642 189.766 41.4548 190.28 41.8359C190.797 42.2171 191.117 42.7325 191.239 43.3821Z" fill="#0F172A"/>
<path d="M87.2379 58.7273H88.4844L90.3842 62.0334H90.4624L92.3622 58.7273H93.6087L90.9702 63.1449V66H89.8764V63.1449L87.2379 58.7273ZM95.7586 66.1101C95.2473 66.1101 94.801 65.9929 94.4199 65.7585C94.0387 65.5241 93.7428 65.1963 93.5321 64.7749C93.3214 64.3535 93.216 63.861 93.216 63.2976C93.216 62.7318 93.3214 62.237 93.5321 61.8132C93.7428 61.3894 94.0387 61.0604 94.4199 60.826C94.801 60.5916 95.2473 60.4744 95.7586 60.4744C96.27 60.4744 96.7163 60.5916 97.0974 60.826C97.4786 61.0604 97.7745 61.3894 97.9852 61.8132C98.1959 62.237 98.3012 62.7318 98.3012 63.2976C98.3012 63.861 98.1959 64.3535 97.9852 64.7749C97.7745 65.1963 97.4786 65.5241 97.0974 65.7585C96.7163 65.9929 96.27 66.1101 95.7586 66.1101ZM95.7622 65.2188C96.0936 65.2188 96.3682 65.1312 96.586 64.956C96.8038 64.7808 96.9648 64.5476 97.069 64.2564C97.1755 63.9652 97.2288 63.6444 97.2288 63.294C97.2288 62.946 97.1755 62.6264 97.069 62.3352C96.9648 62.0417 96.8038 61.8061 96.586 61.6286C96.3682 61.451 96.0936 61.3622 95.7622 61.3622C95.4284 61.3622 95.1514 61.451 94.9312 61.6286C94.7134 61.8061 94.5512 62.0417 94.4447 62.3352C94.3405 62.6264 94.2885 62.946 94.2885 63.294C94.2885 63.6444 94.3405 63.9652 94.4447 64.2564C94.5512 64.5476 94.7134 64.7808 94.9312 64.956C95.1514 65.1312 95.4284 65.2188 95.7622 65.2188ZM102.742 63.7379V60.5455H103.807V66H102.763V65.0554H102.706C102.581 65.3466 102.379 65.5893 102.102 65.7834C101.828 65.9751 101.486 66.071 101.076 66.071C100.726 66.071 100.416 65.9941 100.146 65.8402C99.8783 65.6839 99.6676 65.4531 99.5137 65.1477C99.3622 64.8423 99.2864 64.4647 99.2864 64.0149V60.5455H100.348V63.8871C100.348 64.2588 100.451 64.5547 100.657 64.7749C100.863 64.995 101.131 65.1051 101.46 65.1051C101.659 65.1051 101.856 65.0554 102.053 64.956C102.252 64.8565 102.416 64.7062 102.546 64.505C102.679 64.3037 102.744 64.0481 102.742 63.7379ZM109.778 66.1101C109.25 66.1101 108.795 65.9905 108.414 65.7514C108.035 65.5099 107.744 65.1773 107.541 64.7536C107.337 64.3298 107.235 63.8445 107.235 63.2976C107.235 62.7436 107.339 62.2547 107.548 61.831C107.756 61.4048 108.05 61.0722 108.428 60.8331C108.807 60.594 109.253 60.4744 109.767 60.4744C110.181 60.4744 110.551 60.5514 110.875 60.7053C111.199 60.8568 111.461 61.0698 111.66 61.3445C111.861 61.6191 111.981 61.9399 112.019 62.3068H110.985C110.928 62.0511 110.798 61.831 110.595 61.6463C110.393 61.4616 110.123 61.3693 109.785 61.3693C109.489 61.3693 109.23 61.4474 109.007 61.6037C108.787 61.7576 108.615 61.9777 108.492 62.2642C108.369 62.5483 108.308 62.8845 108.308 63.2727C108.308 63.6705 108.368 64.0137 108.489 64.3026C108.609 64.5914 108.78 64.8151 109 64.9737C109.223 65.1323 109.484 65.2116 109.785 65.2116C109.986 65.2116 110.168 65.175 110.332 65.1016C110.497 65.0258 110.636 64.9181 110.747 64.7784C110.861 64.6387 110.94 64.4706 110.985 64.2741H112.019C111.981 64.6269 111.866 64.9418 111.674 65.2188C111.482 65.4957 111.225 65.7135 110.903 65.8722C110.584 66.0308 110.209 66.1101 109.778 66.1101ZM115.252 66.1101C114.74 66.1101 114.294 65.9929 113.913 65.7585C113.532 65.5241 113.236 65.1963 113.025 64.7749C112.814 64.3535 112.709 63.861 112.709 63.2976C112.709 62.7318 112.814 62.237 113.025 61.8132C113.236 61.3894 113.532 61.0604 113.913 60.826C114.294 60.5916 114.74 60.4744 115.252 60.4744C115.763 60.4744 116.209 60.5916 116.59 60.826C116.972 61.0604 117.267 61.3894 117.478 61.8132C117.689 62.237 117.794 62.7318 117.794 63.2976C117.794 63.861 117.689 64.3535 117.478 64.7749C117.267 65.1963 116.972 65.5241 116.59 65.7585C116.209 65.9929 115.763 66.1101 115.252 66.1101ZM115.255 65.2188C115.587 65.2188 115.861 65.1312 116.079 64.956C116.297 64.7808 116.458 64.5476 116.562 64.2564C116.669 63.9652 116.722 63.6444 116.722 63.294C116.722 62.946 116.669 62.6264 116.562 62.3352C116.458 62.0417 116.297 61.8061 116.079 61.6286C115.861 61.451 115.587 61.3622 115.255 61.3622C114.921 61.3622 114.644 61.451 114.424 61.6286C114.206 61.8061 114.044 62.0417 113.938 62.3352C113.834 62.6264 113.781 62.946 113.781 63.294C113.781 63.6444 113.834 63.9652 113.938 64.2564C114.044 64.5476 114.206 64.7808 114.424 64.956C114.644 65.1312 114.921 65.2188 115.255 65.2188ZM118.779 66V60.5455H119.799V61.4332H119.866C119.98 61.1326 120.166 60.8982 120.424 60.7301C120.682 60.5597 120.991 60.4744 121.35 60.4744C121.715 60.4744 122.02 60.5597 122.267 60.7301C122.515 60.9006 122.699 61.1349 122.817 61.4332H122.874C123.004 61.142 123.211 60.91 123.495 60.7372C123.779 60.562 124.118 60.4744 124.511 60.4744C125.006 60.4744 125.409 60.6295 125.722 60.9396C126.037 61.2498 126.194 61.7173 126.194 62.3423V66H125.132V62.4418C125.132 62.0724 125.032 61.8049 124.831 61.6392C124.629 61.4735 124.389 61.3906 124.11 61.3906C123.764 61.3906 123.495 61.4972 123.304 61.7102C123.112 61.9209 123.016 62.192 123.016 62.5234V66H121.958V62.3743C121.958 62.0784 121.865 61.8404 121.681 61.6605C121.496 61.4806 121.256 61.3906 120.96 61.3906C120.759 61.3906 120.573 61.4439 120.402 61.5504C120.234 61.6546 120.098 61.8002 119.994 61.9872C119.892 62.1742 119.841 62.3909 119.841 62.6371V66H118.779ZM127.417 68.0455V60.5455H128.454V61.4297H128.543C128.605 61.3161 128.693 61.1847 128.809 61.0355C128.925 60.8864 129.086 60.7562 129.292 60.6449C129.498 60.5312 129.771 60.4744 130.109 60.4744C130.549 60.4744 130.942 60.5857 131.288 60.8082C131.634 61.0308 131.905 61.3516 132.101 61.7706C132.3 62.1896 132.4 62.6939 132.4 63.2834C132.4 63.8729 132.301 64.3783 132.105 64.7997C131.908 65.2187 131.638 65.5419 131.295 65.7692C130.952 65.9941 130.56 66.1065 130.12 66.1065C129.788 66.1065 129.517 66.0509 129.306 65.9396C129.098 65.8284 128.935 65.6982 128.816 65.549C128.698 65.3999 128.607 65.2673 128.543 65.1513H128.479V68.0455H127.417ZM128.458 63.2727C128.458 63.6562 128.513 63.9924 128.625 64.2812C128.736 64.5701 128.897 64.7962 129.108 64.9595C129.318 65.1205 129.576 65.201 129.882 65.201C130.199 65.201 130.464 65.117 130.677 64.9489C130.89 64.7784 131.051 64.5476 131.16 64.2564C131.271 63.9652 131.327 63.6373 131.327 63.2727C131.327 62.9129 131.273 62.5897 131.164 62.3033C131.057 62.0168 130.896 61.7907 130.681 61.625C130.468 61.4593 130.201 61.3764 129.882 61.3764C129.574 61.3764 129.314 61.4557 129.101 61.6143C128.89 61.773 128.73 61.9943 128.621 62.2784C128.512 62.5625 128.458 62.8939 128.458 63.2727ZM134.451 58.7273V66H133.389V58.7273H134.451ZM138.03 66.1101C137.493 66.1101 137.03 65.9953 136.642 65.7656C136.256 65.5336 135.958 65.2081 135.747 64.7891C135.539 64.3677 135.434 63.8741 135.434 63.3082C135.434 62.7495 135.539 62.2571 135.747 61.831C135.958 61.4048 136.251 61.0722 136.628 60.8331C137.006 60.594 137.449 60.4744 137.956 60.4744C138.263 60.4744 138.562 60.5253 138.851 60.6271C139.139 60.7289 139.399 60.8887 139.628 61.1065C139.858 61.3243 140.039 61.6072 140.172 61.9553C140.304 62.3009 140.37 62.7211 140.37 63.2159V63.5923H136.035V62.7969H139.33C139.33 62.5175 139.273 62.2701 139.16 62.0547C139.046 61.8369 138.886 61.6652 138.68 61.5398C138.477 61.4143 138.237 61.3516 137.963 61.3516C137.664 61.3516 137.404 61.425 137.182 61.5717C136.961 61.7161 136.791 61.9055 136.67 62.1399C136.552 62.3719 136.493 62.6241 136.493 62.8963V63.5178C136.493 63.8823 136.557 64.1925 136.684 64.4482C136.815 64.7038 136.996 64.8991 137.228 65.0341C137.46 65.1667 137.731 65.233 138.041 65.233C138.242 65.233 138.426 65.2045 138.591 65.1477C138.757 65.0885 138.9 65.0009 139.021 64.8849C139.142 64.7689 139.234 64.6257 139.298 64.4553L140.303 64.6364C140.222 64.9323 140.078 65.1915 139.87 65.4141C139.664 65.6342 139.405 65.8059 139.092 65.929C138.782 66.0497 138.428 66.1101 138.03 66.1101ZM143.895 60.5455V61.3977H140.915V60.5455H143.895ZM141.714 59.2386H142.776V64.3984C142.776 64.6044 142.807 64.7595 142.868 64.8636C142.93 64.9654 143.009 65.0353 143.106 65.0732C143.206 65.1087 143.314 65.1264 143.43 65.1264C143.515 65.1264 143.589 65.1205 143.653 65.1087C143.717 65.0968 143.767 65.0874 143.802 65.0803L143.994 65.9574C143.933 65.9811 143.845 66.0047 143.731 66.0284C143.618 66.0545 143.476 66.0687 143.305 66.071C143.026 66.0758 142.765 66.026 142.524 65.9219C142.282 65.8177 142.087 65.6567 141.938 65.4389C141.789 65.2211 141.714 64.9477 141.714 64.6186V59.2386ZM147.162 66.1101C146.624 66.1101 146.161 65.9953 145.773 65.7656C145.387 65.5336 145.089 65.2081 144.878 64.7891C144.67 64.3677 144.566 63.8741 144.566 63.3082C144.566 62.7495 144.67 62.2571 144.878 61.831C145.089 61.4048 145.382 61.0722 145.759 60.8331C146.138 60.594 146.58 60.4744 147.087 60.4744C147.395 60.4744 147.693 60.5253 147.982 60.6271C148.271 60.7289 148.53 60.8887 148.76 61.1065C148.989 61.3243 149.17 61.6072 149.303 61.9553C149.435 62.3009 149.502 62.7211 149.502 63.2159V63.5923H145.166V62.7969H148.461C148.461 62.5175 148.404 62.2701 148.291 62.0547C148.177 61.8369 148.017 61.6652 147.811 61.5398C147.608 61.4143 147.369 61.3516 147.094 61.3516C146.796 61.3516 146.535 61.425 146.313 61.5717C146.093 61.7161 145.922 61.9055 145.801 62.1399C145.683 62.3719 145.624 62.6241 145.624 62.8963V63.5178C145.624 63.8823 145.688 64.1925 145.816 64.4482C145.946 64.7038 146.127 64.8991 146.359 65.0341C146.591 65.1667 146.862 65.233 147.172 65.233C147.373 65.233 147.557 65.2045 147.723 65.1477C147.888 65.0885 148.032 65.0009 148.152 64.8849C148.273 64.7689 148.365 64.6257 148.429 64.4553L149.434 64.6364C149.354 64.9323 149.209 65.1915 149.001 65.4141C148.795 65.6342 148.536 65.8059 148.223 65.929C147.913 66.0497 147.559 66.1101 147.162 66.1101ZM152.522 66.1065C152.081 66.1065 151.688 65.9941 151.343 65.7692C150.999 65.5419 150.73 65.2187 150.533 64.7997C150.339 64.3783 150.242 63.8729 150.242 63.2834C150.242 62.6939 150.34 62.1896 150.537 61.7706C150.735 61.3516 151.008 61.0308 151.353 60.8082C151.699 60.5857 152.091 60.4744 152.529 60.4744C152.867 60.4744 153.14 60.5312 153.346 60.6449C153.554 60.7562 153.715 60.8864 153.829 61.0355C153.945 61.1847 154.034 61.3161 154.098 61.4297H154.162V58.7273H155.224V66H154.187V65.1513H154.098C154.034 65.2673 153.942 65.3999 153.821 65.549C153.703 65.6982 153.54 65.8284 153.331 65.9396C153.123 66.0509 152.853 66.1065 152.522 66.1065ZM152.756 65.201C153.061 65.201 153.32 65.1205 153.53 64.9595C153.743 64.7962 153.904 64.5701 154.013 64.2812C154.124 63.9924 154.18 63.6562 154.18 63.2727C154.18 62.8939 154.126 62.5625 154.017 62.2784C153.908 61.9943 153.748 61.773 153.537 61.6143C153.327 61.4557 153.066 61.3764 152.756 61.3764C152.436 61.3764 152.17 61.4593 151.957 61.625C151.744 61.7907 151.583 62.0168 151.474 62.3033C151.368 62.5897 151.314 62.9129 151.314 63.2727C151.314 63.6373 151.369 63.9652 151.478 64.2564C151.587 64.5476 151.748 64.7784 151.961 64.9489C152.176 65.117 152.441 65.201 152.756 65.201ZM159.657 68.0455C159.499 68.0455 159.354 68.0324 159.224 68.0064C159.094 67.9827 158.997 67.9567 158.933 67.9283L159.188 67.0582C159.383 67.1103 159.555 67.1328 159.707 67.1257C159.858 67.1186 159.992 67.0618 160.108 66.9553C160.227 66.8487 160.331 66.6747 160.421 66.4332L160.552 66.071L158.556 60.5455H159.693L161.074 64.7784H161.131L162.512 60.5455H163.652L161.404 66.728C161.3 67.0121 161.168 67.2524 161.007 67.4489C160.846 67.6477 160.654 67.7969 160.431 67.8963C160.209 67.9957 159.951 68.0455 159.657 68.0455ZM166.562 66.1101C166.051 66.1101 165.605 65.9929 165.223 65.7585C164.842 65.5241 164.546 65.1963 164.336 64.7749C164.125 64.3535 164.02 63.861 164.02 63.2976C164.02 62.7318 164.125 62.237 164.336 61.8132C164.546 61.3894 164.842 61.0604 165.223 60.826C165.605 60.5916 166.051 60.4744 166.562 60.4744C167.074 60.4744 167.52 60.5916 167.901 60.826C168.282 61.0604 168.578 61.3894 168.789 61.8132C168.999 62.237 169.105 62.7318 169.105 63.2976C169.105 63.861 168.999 64.3535 168.789 64.7749C168.578 65.1963 168.282 65.5241 167.901 65.7585C167.52 65.9929 167.074 66.1101 166.562 66.1101ZM166.566 65.2188C166.897 65.2188 167.172 65.1312 167.39 64.956C167.607 64.7808 167.768 64.5476 167.873 64.2564C167.979 63.9652 168.032 63.6444 168.032 63.294C168.032 62.946 167.979 62.6264 167.873 62.3352C167.768 62.0417 167.607 61.8061 167.39 61.6286C167.172 61.451 166.897 61.3622 166.566 61.3622C166.232 61.3622 165.955 61.451 165.735 61.6286C165.517 61.8061 165.355 62.0417 165.248 62.3352C165.144 62.6264 165.092 62.946 165.092 63.294C165.092 63.6444 165.144 63.9652 165.248 64.2564C165.355 64.5476 165.517 64.7808 165.735 64.956C165.955 65.1312 166.232 65.2188 166.566 65.2188ZM173.545 63.7379V60.5455H174.611V66H173.567V65.0554H173.51C173.384 65.3466 173.183 65.5893 172.906 65.7834C172.631 65.9751 172.289 66.071 171.88 66.071C171.529 66.071 171.219 65.9941 170.949 65.8402C170.682 65.6839 170.471 65.4531 170.317 65.1477C170.166 64.8423 170.09 64.4647 170.09 64.0149V60.5455H171.152V63.8871C171.152 64.2588 171.255 64.5547 171.461 64.7749C171.667 64.995 171.934 65.1051 172.263 65.1051C172.462 65.1051 172.66 65.0554 172.856 64.956C173.055 64.8565 173.22 64.7062 173.35 64.505C173.482 64.3037 173.548 64.0481 173.545 63.7379ZM175.837 66V60.5455H176.863V61.4119H176.92C177.02 61.1184 177.195 60.8875 177.446 60.7195C177.699 60.549 177.986 60.4638 178.305 60.4638C178.372 60.4638 178.45 60.4661 178.54 60.4709C178.632 60.4756 178.704 60.4815 178.756 60.4886V61.5043C178.714 61.4924 178.638 61.4794 178.529 61.4652C178.42 61.4486 178.311 61.4403 178.202 61.4403C177.951 61.4403 177.728 61.4936 177.531 61.6001C177.337 61.7043 177.183 61.8499 177.069 62.0369C176.956 62.2216 176.899 62.4323 176.899 62.669V66H175.837ZM184.219 66.1101C183.708 66.1101 183.262 65.9929 182.88 65.7585C182.499 65.5241 182.203 65.1963 181.993 64.7749C181.782 64.3535 181.677 63.861 181.677 63.2976C181.677 62.7318 181.782 62.237 181.993 61.8132C182.203 61.3894 182.499 61.0604 182.88 60.826C183.262 60.5916 183.708 60.4744 184.219 60.4744C184.731 60.4744 185.177 60.5916 185.558 60.826C185.939 61.0604 186.235 61.3894 186.446 61.8132C186.656 62.237 186.762 62.7318 186.762 63.2976C186.762 63.861 186.656 64.3535 186.446 64.7749C186.235 65.1963 185.939 65.5241 185.558 65.7585C185.177 65.9929 184.731 66.1101 184.219 66.1101ZM184.223 65.2188C184.554 65.2188 184.829 65.1312 185.047 64.956C185.264 64.7808 185.425 64.5476 185.53 64.2564C185.636 63.9652 185.689 63.6444 185.689 63.294C185.689 62.946 185.636 62.6264 185.53 62.3352C185.425 62.0417 185.264 61.8061 185.047 61.6286C184.829 61.451 184.554 61.3622 184.223 61.3622C183.889 61.3622 183.612 61.451 183.392 61.6286C183.174 61.8061 183.012 62.0417 182.905 62.3352C182.801 62.6264 182.749 62.946 182.749 63.294C182.749 63.6444 182.801 63.9652 182.905 64.2564C183.012 64.5476 183.174 64.7808 183.392 64.956C183.612 65.1312 183.889 65.2188 184.223 65.2188ZM188.809 62.7614V66H187.747V60.5455H188.766V61.4332H188.834C188.959 61.1444 189.156 60.9124 189.423 60.7372C189.693 60.562 190.033 60.4744 190.442 60.4744C190.814 60.4744 191.14 60.5526 191.419 60.7088C191.698 60.8627 191.915 61.0923 192.069 61.3977C192.223 61.7031 192.3 62.0807 192.3 62.5305V66H191.238V62.6584C191.238 62.263 191.135 61.9541 190.929 61.7315C190.723 61.5066 190.44 61.3942 190.08 61.3942C189.834 61.3942 189.615 61.4474 189.423 61.554C189.234 61.6605 189.083 61.8168 188.972 62.0227C188.863 62.2263 188.809 62.4725 188.809 62.7614ZM194.585 58.7273V66H193.524V58.7273H194.585ZM195.814 66V60.5455H196.876V66H195.814ZM196.35 59.7038C196.165 59.7038 196.007 59.6423 195.874 59.5192C195.744 59.3937 195.679 59.2446 195.679 59.0717C195.679 58.8965 195.744 58.7474 195.874 58.6243C196.007 58.4988 196.165 58.4361 196.35 58.4361C196.535 58.4361 196.692 58.4988 196.822 58.6243C196.955 58.7474 197.021 58.8965 197.021 59.0717C197.021 59.2446 196.955 59.3937 196.822 59.5192C196.692 59.6423 196.535 59.7038 196.35 59.7038ZM199.166 62.7614V66H198.104V60.5455H199.123V61.4332H199.191C199.316 61.1444 199.513 60.9124 199.78 60.7372C200.05 60.562 200.39 60.4744 200.799 60.4744C201.171 60.4744 201.497 60.5526 201.776 60.7088C202.055 60.8627 202.272 61.0923 202.426 61.3977C202.58 61.7031 202.657 62.0807 202.657 62.5305V66H201.595V62.6584C201.595 62.263 201.492 61.9541 201.286 61.7315C201.08 61.5066 200.797 61.3942 200.437 61.3942C200.191 61.3942 199.972 61.4474 199.78 61.554C199.591 61.6605 199.44 61.8168 199.329 62.0227C199.22 62.2263 199.166 62.4725 199.166 62.7614ZM206.231 66.1101C205.694 66.1101 205.231 65.9953 204.843 65.7656C204.457 65.5336 204.159 65.2081 203.948 64.7891C203.74 64.3677 203.636 63.8741 203.636 63.3082C203.636 62.7495 203.74 62.2571 203.948 61.831C204.159 61.4048 204.452 61.0722 204.829 60.8331C205.208 60.594 205.65 60.4744 206.157 60.4744C206.465 60.4744 206.763 60.5253 207.052 60.6271C207.341 60.7289 207.6 60.8887 207.829 61.1065C208.059 61.3243 208.24 61.6072 208.373 61.9553C208.505 62.3009 208.572 62.7211 208.572 63.2159V63.5923H204.236V62.7969H207.531C207.531 62.5175 207.474 62.2701 207.361 62.0547C207.247 61.8369 207.087 61.6652 206.881 61.5398C206.678 61.4143 206.439 61.3516 206.164 61.3516C205.866 61.3516 205.605 61.425 205.383 61.5717C205.163 61.7161 204.992 61.9055 204.871 62.1399C204.753 62.3719 204.694 62.6241 204.694 62.8963V63.5178C204.694 63.8823 204.758 64.1925 204.886 64.4482C205.016 64.7038 205.197 64.8991 205.429 65.0341C205.661 65.1667 205.932 65.233 206.242 65.233C206.443 65.233 206.627 65.2045 206.793 65.1477C206.958 65.0885 207.101 65.0009 207.222 64.8849C207.343 64.7689 207.435 64.6257 207.499 64.4553L208.504 64.6364C208.424 64.9323 208.279 65.1915 208.071 65.4141C207.865 65.6342 207.606 65.8059 207.293 65.929C206.983 66.0497 206.629 66.1101 206.231 66.1101ZM214.294 66.1101C213.766 66.1101 213.311 65.9905 212.93 65.7514C212.551 65.5099 212.26 65.1773 212.057 64.7536C211.853 64.3298 211.751 63.8445 211.751 63.2976C211.751 62.7436 211.855 62.2547 212.064 61.831C212.272 61.4048 212.566 61.0722 212.944 60.8331C213.323 60.594 213.769 60.4744 214.283 60.4744C214.697 60.4744 215.067 60.5514 215.391 60.7053C215.715 60.8568 215.977 61.0698 216.176 61.3445C216.377 61.6191 216.497 61.9399 216.535 62.3068H215.501C215.444 62.0511 215.314 61.831 215.111 61.6463C214.909 61.4616 214.639 61.3693 214.301 61.3693C214.005 61.3693 213.746 61.4474 213.523 61.6037C213.303 61.7576 213.131 61.9777 213.008 62.2642C212.885 62.5483 212.824 62.8845 212.824 63.2727C212.824 63.6705 212.884 64.0137 213.005 64.3026C213.125 64.5914 213.296 64.8151 213.516 64.9737C213.739 65.1323 214 65.2116 214.301 65.2116C214.502 65.2116 214.684 65.175 214.848 65.1016C215.013 65.0258 215.152 64.9181 215.263 64.7784C215.377 64.6387 215.456 64.4706 215.501 64.2741H216.535C216.497 64.6269 216.382 64.9418 216.19 65.2188C215.998 65.4957 215.741 65.7135 215.419 65.8722C215.1 66.0308 214.725 66.1101 214.294 66.1101ZM219.768 66.1101C219.256 66.1101 218.81 65.9929 218.429 65.7585C218.048 65.5241 217.752 65.1963 217.541 64.7749C217.33 64.3535 217.225 63.861 217.225 63.2976C217.225 62.7318 217.33 62.237 217.541 61.8132C217.752 61.3894 218.048 61.0604 218.429 60.826C218.81 60.5916 219.256 60.4744 219.768 60.4744C220.279 60.4744 220.725 60.5916 221.106 60.826C221.488 61.0604 221.783 61.3894 221.994 61.8132C222.205 62.237 222.31 62.7318 222.31 63.2976C222.31 63.861 222.205 64.3535 221.994 64.7749C221.783 65.1963 221.488 65.5241 221.106 65.7585C220.725 65.9929 220.279 66.1101 219.768 66.1101ZM219.771 65.2188C220.103 65.2188 220.377 65.1312 220.595 64.956C220.813 64.7808 220.974 64.5476 221.078 64.2564C221.185 63.9652 221.238 63.6444 221.238 63.294C221.238 62.946 221.185 62.6264 221.078 62.3352C220.974 62.0417 220.813 61.8061 220.595 61.6286C220.377 61.451 220.103 61.3622 219.771 61.3622C219.437 61.3622 219.16 61.451 218.94 61.6286C218.722 61.8061 218.56 62.0417 218.454 62.3352C218.35 62.6264 218.297 62.946 218.297 63.294C218.297 63.6444 218.35 63.9652 218.454 64.2564C218.56 64.5476 218.722 64.7808 218.94 64.956C219.16 65.1312 219.437 65.2188 219.771 65.2188ZM226.751 63.7379V60.5455H227.816V66H226.772V65.0554H226.715C226.59 65.3466 226.388 65.5893 226.111 65.7834C225.837 65.9751 225.495 66.071 225.085 66.071C224.735 66.071 224.425 65.9941 224.155 65.8402C223.887 65.6839 223.677 65.4531 223.523 65.1477C223.371 64.8423 223.295 64.4647 223.295 64.0149V60.5455H224.357V63.8871C224.357 64.2588 224.46 64.5547 224.666 64.7749C224.872 64.995 225.14 65.1051 225.469 65.1051C225.668 65.1051 225.865 65.0554 226.062 64.956C226.261 64.8565 226.425 64.7062 226.555 64.505C226.688 64.3037 226.753 64.0481 226.751 63.7379ZM229.043 66V60.5455H230.069V61.4119H230.126C230.225 61.1184 230.4 60.8875 230.651 60.7195C230.905 60.549 231.191 60.4638 231.511 60.4638C231.577 60.4638 231.655 60.4661 231.745 60.4709C231.837 60.4756 231.91 60.4815 231.962 60.4886V61.5043C231.919 61.4924 231.843 61.4794 231.734 61.4652C231.626 61.4486 231.517 61.4403 231.408 61.4403C231.157 61.4403 230.933 61.4936 230.737 61.6001C230.542 61.7043 230.389 61.8499 230.275 62.0369C230.161 62.2216 230.104 62.4323 230.104 62.669V66H229.043ZM236.768 61.8771L235.806 62.0476C235.765 61.9245 235.701 61.8073 235.614 61.696C235.529 61.5848 235.413 61.4936 235.266 61.4226C235.119 61.3516 234.936 61.3161 234.715 61.3161C234.415 61.3161 234.164 61.3835 233.963 61.5185C233.761 61.651 233.661 61.8227 233.661 62.0334C233.661 62.2157 233.728 62.3625 233.863 62.4737C233.998 62.585 234.216 62.6761 234.517 62.7472L235.383 62.946C235.885 63.062 236.259 63.2408 236.505 63.4822C236.751 63.7237 236.874 64.0374 236.874 64.4233C236.874 64.75 236.78 65.0412 236.59 65.2969C236.403 65.5502 236.142 65.7491 235.806 65.8935C235.472 66.0379 235.085 66.1101 234.644 66.1101C234.034 66.1101 233.535 65.9799 233.149 65.7195C232.763 65.4567 232.527 65.0838 232.439 64.6009L233.465 64.4446C233.529 64.7121 233.661 64.9145 233.86 65.0518C234.058 65.1868 234.318 65.2543 234.637 65.2543C234.985 65.2543 235.263 65.1821 235.472 65.0376C235.68 64.8909 235.784 64.7121 235.784 64.5014C235.784 64.331 235.72 64.1877 235.593 64.0717C235.467 63.9557 235.274 63.8681 235.014 63.8089L234.09 63.6065C233.581 63.4905 233.205 63.3059 232.961 63.0526C232.72 62.7992 232.599 62.4785 232.599 62.0902C232.599 61.7682 232.689 61.4865 232.869 61.245C233.049 61.0036 233.297 60.8153 233.615 60.6804C233.932 60.5431 234.295 60.4744 234.705 60.4744C235.294 60.4744 235.758 60.6023 236.097 60.858C236.435 61.1113 236.659 61.451 236.768 61.8771ZM240.193 66.1101C239.655 66.1101 239.193 65.9953 238.804 65.7656C238.418 65.5336 238.12 65.2081 237.909 64.7891C237.701 64.3677 237.597 63.8741 237.597 63.3082C237.597 62.7495 237.701 62.2571 237.909 61.831C238.12 61.4048 238.414 61.0722 238.79 60.8331C239.169 60.594 239.612 60.4744 240.118 60.4744C240.426 60.4744 240.724 60.5253 241.013 60.6271C241.302 60.7289 241.561 60.8887 241.791 61.1065C242.02 61.3243 242.202 61.6072 242.334 61.9553C242.467 62.3009 242.533 62.7211 242.533 63.2159V63.5923H238.197V62.7969H241.492C241.492 62.5175 241.436 62.2701 241.322 62.0547C241.208 61.8369 241.049 61.6652 240.843 61.5398C240.639 61.4143 240.4 61.3516 240.125 61.3516C239.827 61.3516 239.567 61.425 239.344 61.5717C239.124 61.7161 238.953 61.9055 238.833 62.1399C238.714 62.3719 238.655 62.6241 238.655 62.8963V63.5178C238.655 63.8823 238.719 64.1925 238.847 64.4482C238.977 64.7038 239.158 64.8991 239.39 65.0341C239.622 65.1667 239.893 65.233 240.203 65.233C240.405 65.233 240.588 65.2045 240.754 65.1477C240.92 65.0885 241.063 65.0009 241.184 64.8849C241.304 64.7689 241.397 64.6257 241.461 64.4553L242.465 64.6364C242.385 64.9323 242.241 65.1915 242.032 65.4141C241.826 65.6342 241.567 65.8059 241.255 65.929C240.944 66.0497 240.59 66.1101 240.193 66.1101ZM244.85 58.7273L244.757 63.9084H243.774L243.682 58.7273H244.85ZM244.267 66.0675C244.071 66.0675 243.903 65.9988 243.763 65.8615C243.624 65.7218 243.555 65.5537 243.557 65.3572C243.555 65.1631 243.624 64.9974 243.763 64.8601C243.903 64.7204 244.071 64.6506 244.267 64.6506C244.459 64.6506 244.625 64.7204 244.765 64.8601C244.904 64.9974 244.975 65.1631 244.978 65.3572C244.975 65.4875 244.941 65.607 244.875 65.7159C244.811 65.8224 244.726 65.9077 244.619 65.9716C244.512 66.0355 244.395 66.0675 244.267 66.0675Z" fill="#7C7671"/>
<g filter="url(#filter1_d_25_126)">
<circle cx="56" cy="53" r="20" fill="#FBE36B"/>
<circle cx="56" cy="53" r="20" stroke="white" stroke-width="2"/>
</g>
<g clip-path="url(#clip0_25_126)">
<path d="M59.5511 53.9961L57.541 56.013C56.7259 56.831 55.2917 56.8486 54.459 56.013L52.4488 53.9961L45.2293 61.2391C45.4981 61.3633 45.7944 61.4375 46.1094 61.4375H65.8906C66.2056 61.4375 66.5018 61.3634 66.7705 61.2391L59.5511 53.9961Z" fill="white"/>
<path d="M65.8906 44.5625H46.1094C45.7944 44.5625 45.4981 44.6367 45.2294 44.7609L52.944 52.5011C52.9445 52.5016 52.9451 52.5017 52.9456 52.5022C52.9461 52.5027 52.9462 52.5034 52.9462 52.5034L55.4546 55.0201C55.7211 55.2866 56.279 55.2866 56.5454 55.0201L59.0533 52.5038C59.0533 52.5038 59.0539 52.5027 59.0545 52.5022C59.0545 52.5022 59.0556 52.5016 59.0561 52.5011L66.7705 44.7609C66.5018 44.6366 66.2056 44.5625 65.8906 44.5625Z" fill="white"/>
<path d="M44.2243 45.7443C44.0853 46.0255 44 46.3376 44 46.6719V59.3281C44 59.6624 44.0852 59.9745 44.2243 60.2557L51.4563 53.0002L44.2243 45.7443Z" fill="white"/>
<path d="M67.7757 45.7442L60.5437 53.0002L67.7757 60.2558C67.9147 59.9746 68 59.6625 68 59.3281V46.6719C68 46.3375 67.9147 46.0254 67.7757 45.7442Z" fill="white"/>
</g>
<defs>
<filter id="filter0_bd_25_126" x="0" y="0" width="289" height="115" filterUnits="userSpaceOnUse" color-interpolation-filters="sRGB">
<feFlood flood-opacity="0" result="BackgroundImageFix"/>
<feGaussianBlur in="BackgroundImage" stdDeviation="2"/>
<feComposite in2="SourceAlpha" operator="in" result="effect1_backgroundBlur_25_126"/>
<feColorMatrix in="SourceAlpha" type="matrix" values="0 0 0 0 0 0 0 0 0 0 0 0 0 0 0 0 0 0 127 0" result="hardAlpha"/>
<feOffset dy="4"/>
<feGaussianBlur stdDeviation="11"/>
<feComposite in2="hardAlpha" operator="out"/>
<feColorMatrix type="matrix" values="0 0 0 0 0 0 0 0 0 0 0 0 0 0 0 0 0 0 0.1 0"/>
<feBlend mode="normal" in2="effect1_backgroundBlur_25_126" result="effect2_dropShadow_25_126"/>
<feBlend mode="normal" in="SourceGraphic" in2="effect2_dropShadow_25_126" result="shape"/>
</filter>
<filter id="filter1_d_25_126" x="13" y="14" width="86" height="86" filterUnits="userSpaceOnUse" color-interpolation-filters="sRGB">
<feFlood flood-opacity="0" result="BackgroundImageFix"/>
<feColorMatrix in="SourceAlpha" type="matrix" values="0 0 0 0 0 0 0 0 0 0 0 0 0 0 0 0 0 0 127 0" result="hardAlpha"/>
<feOffset dy="4"/>
<feGaussianBlur stdDeviation="11"/>
<feComposite in2="hardAlpha" operator="out"/>
<feColorMatrix type="matrix" values="0 0 0 0 0 0 0 0 0 0 0 0 0 0 0 0 0 0 0.06 0"/>
<feBlend mode="normal" in2="BackgroundImageFix" result="effect1_dropShadow_25_126"/>
<feBlend mode="normal" in="SourceGraphic" in2="effect1_dropShadow_25_126" result="shape"/>
</filter>
<clipPath id="clip0_25_126">
<rect width="24" height="24" fill="white" transform="translate(44 41)"/>
</clipPath>
</defs>
</svg>
