<svg width="46" height="50" viewBox="0 0 46 50" fill="none" xmlns="http://www.w3.org/2000/svg">
<path fill-rule="evenodd" clip-rule="evenodd" d="M15.391 46.6598C10.9986 45.4369 6.4 44.82 1.93904 44.2549C0.978214 44.1364 0.0861547 44.7975 0.0175245 45.729C-0.119736 46.6611 0.566968 47.5136 1.45916 47.6321C5.78287 48.1761 10.2434 48.7583 14.4299 49.9355C15.3221 50.1909 16.2833 49.6652 16.5578 48.761C16.8323 47.8575 16.2832 46.9158 15.391 46.6598Z" fill="#FBE36B"/>
<path fill-rule="evenodd" clip-rule="evenodd" d="M28.7047 29.3223C21.6357 22.1655 13.6746 15.9299 6.74298 8.5811C6.12531 7.89477 5.02723 7.858 4.34092 8.49871C3.65462 9.14011 3.58626 10.2186 4.27256 10.905C11.2042 18.2749 19.1653 24.5309 26.2342 31.7088C26.9205 32.3788 28.0184 32.3884 28.7047 31.7293C29.3223 31.0708 29.391 29.9923 28.7047 29.3223Z" fill="#FBE36B"/>
<path fill-rule="evenodd" clip-rule="evenodd" d="M41.9512 1.79466C42.1571 5.89088 42.3626 9.98711 42.5685 14.084C42.5685 15.0223 43.3924 15.7467 44.3533 15.7011C45.3141 15.6548 46 14.8561 46 13.9172C45.7941 9.81417 45.5886 5.71181 45.3827 1.60946C45.3141 0.671191 44.4904 -0.0485087 43.5296 0.00255798C42.6374 0.0536246 41.8826 0.857076 41.9512 1.79466Z" fill="#FBE36B"/>
</svg>
