<svg width="223" height="160" viewBox="0 0 223 160" fill="none" xmlns="http://www.w3.org/2000/svg">
<path fill-rule="evenodd" clip-rule="evenodd" d="M153.893 65.3528C154.539 63.0607 154.922 60.6696 155.011 58.174C155.326 49.4168 147.515 41.4189 137.917 37.2374C128.324 33.057 117.14 32.781 111.051 38.6742C107.569 42.0433 106.22 45.4371 106.281 48.6537C106.343 51.8534 107.828 54.9312 110.259 57.7073C117.039 65.4422 131.326 70.8474 138.642 70.623C142.026 70.5174 145.401 70.1822 148.749 69.6465C144.345 78.3473 135.516 85.2091 124.852 90.5892C101.675 102.283 69.7211 106.9 52.9988 107.123C52.1003 107.135 51.3847 107.873 51.3966 108.771C51.4085 109.67 52.1457 110.389 53.0442 110.377C70.0976 110.15 102.68 105.42 126.315 93.4939C138.525 87.3345 148.326 79.2322 152.642 68.9381C177.636 63.8076 201.556 48.1467 221.924 35.0377C222.679 34.5551 222.897 33.5451 222.411 32.7885C221.923 32.0359 220.918 31.815 220.162 32.3014C200.626 44.8734 177.807 59.9533 153.893 65.3528ZM150.261 66.0954C151.139 63.5643 151.66 60.8841 151.759 58.0531C152.032 50.474 144.927 43.8372 136.618 40.2177C131.525 38.001 125.931 36.9248 121.104 37.5658C118.069 37.9676 115.346 39.0485 113.315 41.0156C110.65 43.5949 109.486 46.1316 109.536 48.5913C109.582 51.0668 110.822 53.4126 112.707 55.5601C118.884 62.6112 131.881 67.5738 138.54 67.3688C142.468 67.2489 146.376 66.8062 150.261 66.0954Z" fill="#FBE36B"/>
</svg>
