<svg width="299" height="19" viewBox="0 0 299 19" fill="none" xmlns="http://www.w3.org/2000/svg">
<path fill-rule="evenodd" clip-rule="evenodd" d="M99.1248 1.61824C66.1526 1.23863 33.0459 2.62591 1.1315 8.45112C0.562095 8.55465 0.325715 8.75826 0.279127 8.80485C0.00650152 9.08093 -0.0228821 9.37425 0.0116274 9.61582C0.0323331 9.76248 0.172157 10.3819 0.936544 10.4458C1.46454 10.4889 5.21222 10.1869 6.65817 10.1093C13.4652 9.74523 20.2584 9.22586 27.0482 8.6254C42.4429 7.26917 57.8168 6.09585 73.2357 5.02778C81.8924 4.42732 90.5526 3.93036 99.2076 3.52315C120.029 3.76644 140.798 4.71547 161.18 5.69554C153.079 6.1942 145.635 6.69976 139.463 7.0276C129.055 7.57975 118.666 8.23198 108.278 9.09127C102.942 9.53126 97.6115 10.0092 92.285 10.5735C91.6948 10.6373 90.3507 10.7029 89.7002 10.7805C89.4241 10.8116 89.224 10.8616 89.1343 10.8961C88.5718 11.1135 88.501 11.5587 88.4941 11.783C88.4907 11.9193 88.5373 12.663 89.4863 12.8079C133.612 19.6098 179.648 11.6967 223.932 18.3088C224.451 18.3864 224.938 18.0275 225.016 17.5064C225.093 16.9871 224.734 16.5005 224.213 16.4228C182.505 10.1956 139.242 16.8542 97.4804 11.9659C101.13 11.6122 104.781 11.293 108.435 10.991C118.804 10.1335 129.174 9.48296 139.565 8.93081C150.021 8.37693 164.156 7.29505 178.952 6.61348C191.65 7.32093 204.341 8.11464 217.04 8.78758C222.398 9.07056 227.757 9.30523 233.113 9.59339C235.315 9.71072 240.98 10.2025 241.801 10.0196C242.439 9.87636 242.593 9.41912 242.631 9.18963C242.671 8.94116 242.646 8.63229 242.357 8.33723C242.267 8.24406 241.998 8.05081 241.446 7.89207C226.512 3.61461 202.058 3.6819 179.156 4.71546C174.23 4.43938 169.303 4.17711 164.375 3.94072C153.094 3.3972 141.689 2.85194 130.218 2.42229C162.545 1.6234 194.887 1.8529 227.238 2.43093C240.821 2.67422 277.434 4.14088 291.854 5.43672C291.678 5.61789 291.574 5.86981 291.586 6.14416C291.61 6.6687 292.057 7.07592 292.583 7.05176C295.558 6.91372 297.279 6.73773 297.96 6.55655C298.385 6.44439 298.616 6.26495 298.723 6.14761C298.985 5.86464 299.033 5.56094 298.982 5.27279C298.949 5.09334 298.868 4.89663 298.681 4.71546C298.557 4.59123 298.253 4.40143 297.736 4.27202C292.068 2.86231 243.445 0.81415 227.272 0.52427C184.534 -0.238391 141.813 -0.393668 99.1248 1.61824ZM229.885 7.5159C221.534 6.38227 211.743 5.98369 201.53 6.00957C206.732 6.31153 211.936 6.60659 217.142 6.88267C221.389 7.10871 225.637 7.30195 229.885 7.5159ZM59.7356 4.0805C48.7788 4.88802 37.8341 5.7611 26.8808 6.72737C25.616 6.8378 24.353 6.94651 23.0882 7.05349C35.201 5.56958 47.4399 4.62575 59.7356 4.0805Z" fill="#FBE36B"/>
</svg>
